%TF.GenerationSoftware,KiCad,Pcbnew,8.0.1*%
%TF.CreationDate,2024-04-05T23:37:33+02:00*%
%TF.ProjectId,power_system_board,706f7765-725f-4737-9973-74656d5f626f,rev?*%
%TF.SameCoordinates,Original*%
%TF.FileFunction,Legend,Top*%
%TF.FilePolarity,Positive*%
%FSLAX46Y46*%
G04 Gerber Fmt 4.6, Leading zero omitted, Abs format (unit mm)*
G04 Created by KiCad (PCBNEW 8.0.1) date 2024-04-05 23:37:33*
%MOMM*%
%LPD*%
G01*
G04 APERTURE LIST*
%ADD10C,0.150000*%
%ADD11C,0.120000*%
G04 APERTURE END LIST*
D10*
X142836779Y-57988866D02*
X143598684Y-57988866D01*
X94836779Y-57488866D02*
X95598684Y-57488866D01*
X95217731Y-57869819D02*
X95217731Y-57107914D01*
X119738095Y-72954819D02*
X119738095Y-73764342D01*
X119738095Y-73764342D02*
X119785714Y-73859580D01*
X119785714Y-73859580D02*
X119833333Y-73907200D01*
X119833333Y-73907200D02*
X119928571Y-73954819D01*
X119928571Y-73954819D02*
X120119047Y-73954819D01*
X120119047Y-73954819D02*
X120214285Y-73907200D01*
X120214285Y-73907200D02*
X120261904Y-73859580D01*
X120261904Y-73859580D02*
X120309523Y-73764342D01*
X120309523Y-73764342D02*
X120309523Y-72954819D01*
X121214285Y-73288152D02*
X121214285Y-73954819D01*
X120976190Y-72907200D02*
X120738095Y-73621485D01*
X120738095Y-73621485D02*
X121357142Y-73621485D01*
X92738095Y-88854819D02*
X92738095Y-89664342D01*
X92738095Y-89664342D02*
X92785714Y-89759580D01*
X92785714Y-89759580D02*
X92833333Y-89807200D01*
X92833333Y-89807200D02*
X92928571Y-89854819D01*
X92928571Y-89854819D02*
X93119047Y-89854819D01*
X93119047Y-89854819D02*
X93214285Y-89807200D01*
X93214285Y-89807200D02*
X93261904Y-89759580D01*
X93261904Y-89759580D02*
X93309523Y-89664342D01*
X93309523Y-89664342D02*
X93309523Y-88854819D01*
X93690476Y-88854819D02*
X94309523Y-88854819D01*
X94309523Y-88854819D02*
X93976190Y-89235771D01*
X93976190Y-89235771D02*
X94119047Y-89235771D01*
X94119047Y-89235771D02*
X94214285Y-89283390D01*
X94214285Y-89283390D02*
X94261904Y-89331009D01*
X94261904Y-89331009D02*
X94309523Y-89426247D01*
X94309523Y-89426247D02*
X94309523Y-89664342D01*
X94309523Y-89664342D02*
X94261904Y-89759580D01*
X94261904Y-89759580D02*
X94214285Y-89807200D01*
X94214285Y-89807200D02*
X94119047Y-89854819D01*
X94119047Y-89854819D02*
X93833333Y-89854819D01*
X93833333Y-89854819D02*
X93738095Y-89807200D01*
X93738095Y-89807200D02*
X93690476Y-89759580D01*
X130909819Y-99896904D02*
X131719342Y-99896904D01*
X131719342Y-99896904D02*
X131814580Y-99849285D01*
X131814580Y-99849285D02*
X131862200Y-99801666D01*
X131862200Y-99801666D02*
X131909819Y-99706428D01*
X131909819Y-99706428D02*
X131909819Y-99515952D01*
X131909819Y-99515952D02*
X131862200Y-99420714D01*
X131862200Y-99420714D02*
X131814580Y-99373095D01*
X131814580Y-99373095D02*
X131719342Y-99325476D01*
X131719342Y-99325476D02*
X130909819Y-99325476D01*
X131005057Y-98896904D02*
X130957438Y-98849285D01*
X130957438Y-98849285D02*
X130909819Y-98754047D01*
X130909819Y-98754047D02*
X130909819Y-98515952D01*
X130909819Y-98515952D02*
X130957438Y-98420714D01*
X130957438Y-98420714D02*
X131005057Y-98373095D01*
X131005057Y-98373095D02*
X131100295Y-98325476D01*
X131100295Y-98325476D02*
X131195533Y-98325476D01*
X131195533Y-98325476D02*
X131338390Y-98373095D01*
X131338390Y-98373095D02*
X131909819Y-98944523D01*
X131909819Y-98944523D02*
X131909819Y-98325476D01*
X89700595Y-71604819D02*
X89700595Y-72414342D01*
X89700595Y-72414342D02*
X89748214Y-72509580D01*
X89748214Y-72509580D02*
X89795833Y-72557200D01*
X89795833Y-72557200D02*
X89891071Y-72604819D01*
X89891071Y-72604819D02*
X90081547Y-72604819D01*
X90081547Y-72604819D02*
X90176785Y-72557200D01*
X90176785Y-72557200D02*
X90224404Y-72509580D01*
X90224404Y-72509580D02*
X90272023Y-72414342D01*
X90272023Y-72414342D02*
X90272023Y-71604819D01*
X91272023Y-72604819D02*
X90700595Y-72604819D01*
X90986309Y-72604819D02*
X90986309Y-71604819D01*
X90986309Y-71604819D02*
X90891071Y-71747676D01*
X90891071Y-71747676D02*
X90795833Y-71842914D01*
X90795833Y-71842914D02*
X90700595Y-71890533D01*
X99804819Y-86666666D02*
X99328628Y-86999999D01*
X99804819Y-87238094D02*
X98804819Y-87238094D01*
X98804819Y-87238094D02*
X98804819Y-86857142D01*
X98804819Y-86857142D02*
X98852438Y-86761904D01*
X98852438Y-86761904D02*
X98900057Y-86714285D01*
X98900057Y-86714285D02*
X98995295Y-86666666D01*
X98995295Y-86666666D02*
X99138152Y-86666666D01*
X99138152Y-86666666D02*
X99233390Y-86714285D01*
X99233390Y-86714285D02*
X99281009Y-86761904D01*
X99281009Y-86761904D02*
X99328628Y-86857142D01*
X99328628Y-86857142D02*
X99328628Y-87238094D01*
X98804819Y-85761904D02*
X98804819Y-86238094D01*
X98804819Y-86238094D02*
X99281009Y-86285713D01*
X99281009Y-86285713D02*
X99233390Y-86238094D01*
X99233390Y-86238094D02*
X99185771Y-86142856D01*
X99185771Y-86142856D02*
X99185771Y-85904761D01*
X99185771Y-85904761D02*
X99233390Y-85809523D01*
X99233390Y-85809523D02*
X99281009Y-85761904D01*
X99281009Y-85761904D02*
X99376247Y-85714285D01*
X99376247Y-85714285D02*
X99614342Y-85714285D01*
X99614342Y-85714285D02*
X99709580Y-85761904D01*
X99709580Y-85761904D02*
X99757200Y-85809523D01*
X99757200Y-85809523D02*
X99804819Y-85904761D01*
X99804819Y-85904761D02*
X99804819Y-86142856D01*
X99804819Y-86142856D02*
X99757200Y-86238094D01*
X99757200Y-86238094D02*
X99709580Y-86285713D01*
X89933333Y-69304819D02*
X89600000Y-68828628D01*
X89361905Y-69304819D02*
X89361905Y-68304819D01*
X89361905Y-68304819D02*
X89742857Y-68304819D01*
X89742857Y-68304819D02*
X89838095Y-68352438D01*
X89838095Y-68352438D02*
X89885714Y-68400057D01*
X89885714Y-68400057D02*
X89933333Y-68495295D01*
X89933333Y-68495295D02*
X89933333Y-68638152D01*
X89933333Y-68638152D02*
X89885714Y-68733390D01*
X89885714Y-68733390D02*
X89838095Y-68781009D01*
X89838095Y-68781009D02*
X89742857Y-68828628D01*
X89742857Y-68828628D02*
X89361905Y-68828628D01*
X90790476Y-68638152D02*
X90790476Y-69304819D01*
X90552381Y-68257200D02*
X90314286Y-68971485D01*
X90314286Y-68971485D02*
X90933333Y-68971485D01*
X88204819Y-73254166D02*
X87728628Y-73587499D01*
X88204819Y-73825594D02*
X87204819Y-73825594D01*
X87204819Y-73825594D02*
X87204819Y-73444642D01*
X87204819Y-73444642D02*
X87252438Y-73349404D01*
X87252438Y-73349404D02*
X87300057Y-73301785D01*
X87300057Y-73301785D02*
X87395295Y-73254166D01*
X87395295Y-73254166D02*
X87538152Y-73254166D01*
X87538152Y-73254166D02*
X87633390Y-73301785D01*
X87633390Y-73301785D02*
X87681009Y-73349404D01*
X87681009Y-73349404D02*
X87728628Y-73444642D01*
X87728628Y-73444642D02*
X87728628Y-73825594D01*
X87204819Y-72920832D02*
X87204819Y-72301785D01*
X87204819Y-72301785D02*
X87585771Y-72635118D01*
X87585771Y-72635118D02*
X87585771Y-72492261D01*
X87585771Y-72492261D02*
X87633390Y-72397023D01*
X87633390Y-72397023D02*
X87681009Y-72349404D01*
X87681009Y-72349404D02*
X87776247Y-72301785D01*
X87776247Y-72301785D02*
X88014342Y-72301785D01*
X88014342Y-72301785D02*
X88109580Y-72349404D01*
X88109580Y-72349404D02*
X88157200Y-72397023D01*
X88157200Y-72397023D02*
X88204819Y-72492261D01*
X88204819Y-72492261D02*
X88204819Y-72777975D01*
X88204819Y-72777975D02*
X88157200Y-72873213D01*
X88157200Y-72873213D02*
X88109580Y-72920832D01*
X91833333Y-81454819D02*
X91500000Y-80978628D01*
X91261905Y-81454819D02*
X91261905Y-80454819D01*
X91261905Y-80454819D02*
X91642857Y-80454819D01*
X91642857Y-80454819D02*
X91738095Y-80502438D01*
X91738095Y-80502438D02*
X91785714Y-80550057D01*
X91785714Y-80550057D02*
X91833333Y-80645295D01*
X91833333Y-80645295D02*
X91833333Y-80788152D01*
X91833333Y-80788152D02*
X91785714Y-80883390D01*
X91785714Y-80883390D02*
X91738095Y-80931009D01*
X91738095Y-80931009D02*
X91642857Y-80978628D01*
X91642857Y-80978628D02*
X91261905Y-80978628D01*
X92214286Y-80550057D02*
X92261905Y-80502438D01*
X92261905Y-80502438D02*
X92357143Y-80454819D01*
X92357143Y-80454819D02*
X92595238Y-80454819D01*
X92595238Y-80454819D02*
X92690476Y-80502438D01*
X92690476Y-80502438D02*
X92738095Y-80550057D01*
X92738095Y-80550057D02*
X92785714Y-80645295D01*
X92785714Y-80645295D02*
X92785714Y-80740533D01*
X92785714Y-80740533D02*
X92738095Y-80883390D01*
X92738095Y-80883390D02*
X92166667Y-81454819D01*
X92166667Y-81454819D02*
X92785714Y-81454819D01*
X97304819Y-93166666D02*
X96828628Y-93499999D01*
X97304819Y-93738094D02*
X96304819Y-93738094D01*
X96304819Y-93738094D02*
X96304819Y-93357142D01*
X96304819Y-93357142D02*
X96352438Y-93261904D01*
X96352438Y-93261904D02*
X96400057Y-93214285D01*
X96400057Y-93214285D02*
X96495295Y-93166666D01*
X96495295Y-93166666D02*
X96638152Y-93166666D01*
X96638152Y-93166666D02*
X96733390Y-93214285D01*
X96733390Y-93214285D02*
X96781009Y-93261904D01*
X96781009Y-93261904D02*
X96828628Y-93357142D01*
X96828628Y-93357142D02*
X96828628Y-93738094D01*
X97304819Y-92214285D02*
X97304819Y-92785713D01*
X97304819Y-92499999D02*
X96304819Y-92499999D01*
X96304819Y-92499999D02*
X96447676Y-92595237D01*
X96447676Y-92595237D02*
X96542914Y-92690475D01*
X96542914Y-92690475D02*
X96590533Y-92785713D01*
X105404761Y-93550057D02*
X105309523Y-93502438D01*
X105309523Y-93502438D02*
X105214285Y-93407200D01*
X105214285Y-93407200D02*
X105071428Y-93264342D01*
X105071428Y-93264342D02*
X104976190Y-93216723D01*
X104976190Y-93216723D02*
X104880952Y-93216723D01*
X104928571Y-93454819D02*
X104833333Y-93407200D01*
X104833333Y-93407200D02*
X104738095Y-93311961D01*
X104738095Y-93311961D02*
X104690476Y-93121485D01*
X104690476Y-93121485D02*
X104690476Y-92788152D01*
X104690476Y-92788152D02*
X104738095Y-92597676D01*
X104738095Y-92597676D02*
X104833333Y-92502438D01*
X104833333Y-92502438D02*
X104928571Y-92454819D01*
X104928571Y-92454819D02*
X105119047Y-92454819D01*
X105119047Y-92454819D02*
X105214285Y-92502438D01*
X105214285Y-92502438D02*
X105309523Y-92597676D01*
X105309523Y-92597676D02*
X105357142Y-92788152D01*
X105357142Y-92788152D02*
X105357142Y-93121485D01*
X105357142Y-93121485D02*
X105309523Y-93311961D01*
X105309523Y-93311961D02*
X105214285Y-93407200D01*
X105214285Y-93407200D02*
X105119047Y-93454819D01*
X105119047Y-93454819D02*
X104928571Y-93454819D01*
X105738095Y-92550057D02*
X105785714Y-92502438D01*
X105785714Y-92502438D02*
X105880952Y-92454819D01*
X105880952Y-92454819D02*
X106119047Y-92454819D01*
X106119047Y-92454819D02*
X106214285Y-92502438D01*
X106214285Y-92502438D02*
X106261904Y-92550057D01*
X106261904Y-92550057D02*
X106309523Y-92645295D01*
X106309523Y-92645295D02*
X106309523Y-92740533D01*
X106309523Y-92740533D02*
X106261904Y-92883390D01*
X106261904Y-92883390D02*
X105690476Y-93454819D01*
X105690476Y-93454819D02*
X106309523Y-93454819D01*
X105904761Y-89550057D02*
X105809523Y-89502438D01*
X105809523Y-89502438D02*
X105714285Y-89407200D01*
X105714285Y-89407200D02*
X105571428Y-89264342D01*
X105571428Y-89264342D02*
X105476190Y-89216723D01*
X105476190Y-89216723D02*
X105380952Y-89216723D01*
X105428571Y-89454819D02*
X105333333Y-89407200D01*
X105333333Y-89407200D02*
X105238095Y-89311961D01*
X105238095Y-89311961D02*
X105190476Y-89121485D01*
X105190476Y-89121485D02*
X105190476Y-88788152D01*
X105190476Y-88788152D02*
X105238095Y-88597676D01*
X105238095Y-88597676D02*
X105333333Y-88502438D01*
X105333333Y-88502438D02*
X105428571Y-88454819D01*
X105428571Y-88454819D02*
X105619047Y-88454819D01*
X105619047Y-88454819D02*
X105714285Y-88502438D01*
X105714285Y-88502438D02*
X105809523Y-88597676D01*
X105809523Y-88597676D02*
X105857142Y-88788152D01*
X105857142Y-88788152D02*
X105857142Y-89121485D01*
X105857142Y-89121485D02*
X105809523Y-89311961D01*
X105809523Y-89311961D02*
X105714285Y-89407200D01*
X105714285Y-89407200D02*
X105619047Y-89454819D01*
X105619047Y-89454819D02*
X105428571Y-89454819D01*
X106809523Y-89454819D02*
X106238095Y-89454819D01*
X106523809Y-89454819D02*
X106523809Y-88454819D01*
X106523809Y-88454819D02*
X106428571Y-88597676D01*
X106428571Y-88597676D02*
X106333333Y-88692914D01*
X106333333Y-88692914D02*
X106238095Y-88740533D01*
X112190476Y-90454819D02*
X112190476Y-91169104D01*
X112190476Y-91169104D02*
X112142857Y-91311961D01*
X112142857Y-91311961D02*
X112047619Y-91407200D01*
X112047619Y-91407200D02*
X111904762Y-91454819D01*
X111904762Y-91454819D02*
X111809524Y-91454819D01*
X113190476Y-91454819D02*
X112619048Y-91454819D01*
X112904762Y-91454819D02*
X112904762Y-90454819D01*
X112904762Y-90454819D02*
X112809524Y-90597676D01*
X112809524Y-90597676D02*
X112714286Y-90692914D01*
X112714286Y-90692914D02*
X112619048Y-90740533D01*
X113571429Y-90550057D02*
X113619048Y-90502438D01*
X113619048Y-90502438D02*
X113714286Y-90454819D01*
X113714286Y-90454819D02*
X113952381Y-90454819D01*
X113952381Y-90454819D02*
X114047619Y-90502438D01*
X114047619Y-90502438D02*
X114095238Y-90550057D01*
X114095238Y-90550057D02*
X114142857Y-90645295D01*
X114142857Y-90645295D02*
X114142857Y-90740533D01*
X114142857Y-90740533D02*
X114095238Y-90883390D01*
X114095238Y-90883390D02*
X113523810Y-91454819D01*
X113523810Y-91454819D02*
X114142857Y-91454819D01*
X113324819Y-78809523D02*
X114039104Y-78809523D01*
X114039104Y-78809523D02*
X114181961Y-78857142D01*
X114181961Y-78857142D02*
X114277200Y-78952380D01*
X114277200Y-78952380D02*
X114324819Y-79095237D01*
X114324819Y-79095237D02*
X114324819Y-79190475D01*
X114324819Y-77809523D02*
X114324819Y-78380951D01*
X114324819Y-78095237D02*
X113324819Y-78095237D01*
X113324819Y-78095237D02*
X113467676Y-78190475D01*
X113467676Y-78190475D02*
X113562914Y-78285713D01*
X113562914Y-78285713D02*
X113610533Y-78380951D01*
X114324819Y-76857142D02*
X114324819Y-77428570D01*
X114324819Y-77142856D02*
X113324819Y-77142856D01*
X113324819Y-77142856D02*
X113467676Y-77238094D01*
X113467676Y-77238094D02*
X113562914Y-77333332D01*
X113562914Y-77333332D02*
X113610533Y-77428570D01*
X122004819Y-82809523D02*
X122719104Y-82809523D01*
X122719104Y-82809523D02*
X122861961Y-82857142D01*
X122861961Y-82857142D02*
X122957200Y-82952380D01*
X122957200Y-82952380D02*
X123004819Y-83095237D01*
X123004819Y-83095237D02*
X123004819Y-83190475D01*
X123004819Y-81809523D02*
X123004819Y-82380951D01*
X123004819Y-82095237D02*
X122004819Y-82095237D01*
X122004819Y-82095237D02*
X122147676Y-82190475D01*
X122147676Y-82190475D02*
X122242914Y-82285713D01*
X122242914Y-82285713D02*
X122290533Y-82380951D01*
X122004819Y-81190475D02*
X122004819Y-81095237D01*
X122004819Y-81095237D02*
X122052438Y-80999999D01*
X122052438Y-80999999D02*
X122100057Y-80952380D01*
X122100057Y-80952380D02*
X122195295Y-80904761D01*
X122195295Y-80904761D02*
X122385771Y-80857142D01*
X122385771Y-80857142D02*
X122623866Y-80857142D01*
X122623866Y-80857142D02*
X122814342Y-80904761D01*
X122814342Y-80904761D02*
X122909580Y-80952380D01*
X122909580Y-80952380D02*
X122957200Y-80999999D01*
X122957200Y-80999999D02*
X123004819Y-81095237D01*
X123004819Y-81095237D02*
X123004819Y-81190475D01*
X123004819Y-81190475D02*
X122957200Y-81285713D01*
X122957200Y-81285713D02*
X122909580Y-81333332D01*
X122909580Y-81333332D02*
X122814342Y-81380951D01*
X122814342Y-81380951D02*
X122623866Y-81428570D01*
X122623866Y-81428570D02*
X122385771Y-81428570D01*
X122385771Y-81428570D02*
X122195295Y-81380951D01*
X122195295Y-81380951D02*
X122100057Y-81333332D01*
X122100057Y-81333332D02*
X122052438Y-81285713D01*
X122052438Y-81285713D02*
X122004819Y-81190475D01*
X154166666Y-95124819D02*
X154166666Y-95839104D01*
X154166666Y-95839104D02*
X154119047Y-95981961D01*
X154119047Y-95981961D02*
X154023809Y-96077200D01*
X154023809Y-96077200D02*
X153880952Y-96124819D01*
X153880952Y-96124819D02*
X153785714Y-96124819D01*
X154690476Y-96124819D02*
X154880952Y-96124819D01*
X154880952Y-96124819D02*
X154976190Y-96077200D01*
X154976190Y-96077200D02*
X155023809Y-96029580D01*
X155023809Y-96029580D02*
X155119047Y-95886723D01*
X155119047Y-95886723D02*
X155166666Y-95696247D01*
X155166666Y-95696247D02*
X155166666Y-95315295D01*
X155166666Y-95315295D02*
X155119047Y-95220057D01*
X155119047Y-95220057D02*
X155071428Y-95172438D01*
X155071428Y-95172438D02*
X154976190Y-95124819D01*
X154976190Y-95124819D02*
X154785714Y-95124819D01*
X154785714Y-95124819D02*
X154690476Y-95172438D01*
X154690476Y-95172438D02*
X154642857Y-95220057D01*
X154642857Y-95220057D02*
X154595238Y-95315295D01*
X154595238Y-95315295D02*
X154595238Y-95553390D01*
X154595238Y-95553390D02*
X154642857Y-95648628D01*
X154642857Y-95648628D02*
X154690476Y-95696247D01*
X154690476Y-95696247D02*
X154785714Y-95743866D01*
X154785714Y-95743866D02*
X154976190Y-95743866D01*
X154976190Y-95743866D02*
X155071428Y-95696247D01*
X155071428Y-95696247D02*
X155119047Y-95648628D01*
X155119047Y-95648628D02*
X155166666Y-95553390D01*
X83166666Y-96084819D02*
X83166666Y-96799104D01*
X83166666Y-96799104D02*
X83119047Y-96941961D01*
X83119047Y-96941961D02*
X83023809Y-97037200D01*
X83023809Y-97037200D02*
X82880952Y-97084819D01*
X82880952Y-97084819D02*
X82785714Y-97084819D01*
X83785714Y-96513390D02*
X83690476Y-96465771D01*
X83690476Y-96465771D02*
X83642857Y-96418152D01*
X83642857Y-96418152D02*
X83595238Y-96322914D01*
X83595238Y-96322914D02*
X83595238Y-96275295D01*
X83595238Y-96275295D02*
X83642857Y-96180057D01*
X83642857Y-96180057D02*
X83690476Y-96132438D01*
X83690476Y-96132438D02*
X83785714Y-96084819D01*
X83785714Y-96084819D02*
X83976190Y-96084819D01*
X83976190Y-96084819D02*
X84071428Y-96132438D01*
X84071428Y-96132438D02*
X84119047Y-96180057D01*
X84119047Y-96180057D02*
X84166666Y-96275295D01*
X84166666Y-96275295D02*
X84166666Y-96322914D01*
X84166666Y-96322914D02*
X84119047Y-96418152D01*
X84119047Y-96418152D02*
X84071428Y-96465771D01*
X84071428Y-96465771D02*
X83976190Y-96513390D01*
X83976190Y-96513390D02*
X83785714Y-96513390D01*
X83785714Y-96513390D02*
X83690476Y-96561009D01*
X83690476Y-96561009D02*
X83642857Y-96608628D01*
X83642857Y-96608628D02*
X83595238Y-96703866D01*
X83595238Y-96703866D02*
X83595238Y-96894342D01*
X83595238Y-96894342D02*
X83642857Y-96989580D01*
X83642857Y-96989580D02*
X83690476Y-97037200D01*
X83690476Y-97037200D02*
X83785714Y-97084819D01*
X83785714Y-97084819D02*
X83976190Y-97084819D01*
X83976190Y-97084819D02*
X84071428Y-97037200D01*
X84071428Y-97037200D02*
X84119047Y-96989580D01*
X84119047Y-96989580D02*
X84166666Y-96894342D01*
X84166666Y-96894342D02*
X84166666Y-96703866D01*
X84166666Y-96703866D02*
X84119047Y-96608628D01*
X84119047Y-96608628D02*
X84071428Y-96561009D01*
X84071428Y-96561009D02*
X83976190Y-96513390D01*
X93559819Y-94833333D02*
X94274104Y-94833333D01*
X94274104Y-94833333D02*
X94416961Y-94880952D01*
X94416961Y-94880952D02*
X94512200Y-94976190D01*
X94512200Y-94976190D02*
X94559819Y-95119047D01*
X94559819Y-95119047D02*
X94559819Y-95214285D01*
X93559819Y-94452380D02*
X93559819Y-93785714D01*
X93559819Y-93785714D02*
X94559819Y-94214285D01*
X97666666Y-84559819D02*
X97666666Y-85274104D01*
X97666666Y-85274104D02*
X97619047Y-85416961D01*
X97619047Y-85416961D02*
X97523809Y-85512200D01*
X97523809Y-85512200D02*
X97380952Y-85559819D01*
X97380952Y-85559819D02*
X97285714Y-85559819D01*
X98571428Y-84559819D02*
X98380952Y-84559819D01*
X98380952Y-84559819D02*
X98285714Y-84607438D01*
X98285714Y-84607438D02*
X98238095Y-84655057D01*
X98238095Y-84655057D02*
X98142857Y-84797914D01*
X98142857Y-84797914D02*
X98095238Y-84988390D01*
X98095238Y-84988390D02*
X98095238Y-85369342D01*
X98095238Y-85369342D02*
X98142857Y-85464580D01*
X98142857Y-85464580D02*
X98190476Y-85512200D01*
X98190476Y-85512200D02*
X98285714Y-85559819D01*
X98285714Y-85559819D02*
X98476190Y-85559819D01*
X98476190Y-85559819D02*
X98571428Y-85512200D01*
X98571428Y-85512200D02*
X98619047Y-85464580D01*
X98619047Y-85464580D02*
X98666666Y-85369342D01*
X98666666Y-85369342D02*
X98666666Y-85131247D01*
X98666666Y-85131247D02*
X98619047Y-85036009D01*
X98619047Y-85036009D02*
X98571428Y-84988390D01*
X98571428Y-84988390D02*
X98476190Y-84940771D01*
X98476190Y-84940771D02*
X98285714Y-84940771D01*
X98285714Y-84940771D02*
X98190476Y-84988390D01*
X98190476Y-84988390D02*
X98142857Y-85036009D01*
X98142857Y-85036009D02*
X98095238Y-85131247D01*
X102666666Y-80559819D02*
X102666666Y-81274104D01*
X102666666Y-81274104D02*
X102619047Y-81416961D01*
X102619047Y-81416961D02*
X102523809Y-81512200D01*
X102523809Y-81512200D02*
X102380952Y-81559819D01*
X102380952Y-81559819D02*
X102285714Y-81559819D01*
X103619047Y-80559819D02*
X103142857Y-80559819D01*
X103142857Y-80559819D02*
X103095238Y-81036009D01*
X103095238Y-81036009D02*
X103142857Y-80988390D01*
X103142857Y-80988390D02*
X103238095Y-80940771D01*
X103238095Y-80940771D02*
X103476190Y-80940771D01*
X103476190Y-80940771D02*
X103571428Y-80988390D01*
X103571428Y-80988390D02*
X103619047Y-81036009D01*
X103619047Y-81036009D02*
X103666666Y-81131247D01*
X103666666Y-81131247D02*
X103666666Y-81369342D01*
X103666666Y-81369342D02*
X103619047Y-81464580D01*
X103619047Y-81464580D02*
X103571428Y-81512200D01*
X103571428Y-81512200D02*
X103476190Y-81559819D01*
X103476190Y-81559819D02*
X103238095Y-81559819D01*
X103238095Y-81559819D02*
X103142857Y-81512200D01*
X103142857Y-81512200D02*
X103095238Y-81464580D01*
X81166666Y-78059819D02*
X81166666Y-78774104D01*
X81166666Y-78774104D02*
X81119047Y-78916961D01*
X81119047Y-78916961D02*
X81023809Y-79012200D01*
X81023809Y-79012200D02*
X80880952Y-79059819D01*
X80880952Y-79059819D02*
X80785714Y-79059819D01*
X82071428Y-78393152D02*
X82071428Y-79059819D01*
X81833333Y-78012200D02*
X81595238Y-78726485D01*
X81595238Y-78726485D02*
X82214285Y-78726485D01*
X86166666Y-88954819D02*
X86166666Y-89669104D01*
X86166666Y-89669104D02*
X86119047Y-89811961D01*
X86119047Y-89811961D02*
X86023809Y-89907200D01*
X86023809Y-89907200D02*
X85880952Y-89954819D01*
X85880952Y-89954819D02*
X85785714Y-89954819D01*
X86547619Y-88954819D02*
X87166666Y-88954819D01*
X87166666Y-88954819D02*
X86833333Y-89335771D01*
X86833333Y-89335771D02*
X86976190Y-89335771D01*
X86976190Y-89335771D02*
X87071428Y-89383390D01*
X87071428Y-89383390D02*
X87119047Y-89431009D01*
X87119047Y-89431009D02*
X87166666Y-89526247D01*
X87166666Y-89526247D02*
X87166666Y-89764342D01*
X87166666Y-89764342D02*
X87119047Y-89859580D01*
X87119047Y-89859580D02*
X87071428Y-89907200D01*
X87071428Y-89907200D02*
X86976190Y-89954819D01*
X86976190Y-89954819D02*
X86690476Y-89954819D01*
X86690476Y-89954819D02*
X86595238Y-89907200D01*
X86595238Y-89907200D02*
X86547619Y-89859580D01*
X156829819Y-73275833D02*
X157544104Y-73275833D01*
X157544104Y-73275833D02*
X157686961Y-73323452D01*
X157686961Y-73323452D02*
X157782200Y-73418690D01*
X157782200Y-73418690D02*
X157829819Y-73561547D01*
X157829819Y-73561547D02*
X157829819Y-73656785D01*
X156925057Y-72847261D02*
X156877438Y-72799642D01*
X156877438Y-72799642D02*
X156829819Y-72704404D01*
X156829819Y-72704404D02*
X156829819Y-72466309D01*
X156829819Y-72466309D02*
X156877438Y-72371071D01*
X156877438Y-72371071D02*
X156925057Y-72323452D01*
X156925057Y-72323452D02*
X157020295Y-72275833D01*
X157020295Y-72275833D02*
X157115533Y-72275833D01*
X157115533Y-72275833D02*
X157258390Y-72323452D01*
X157258390Y-72323452D02*
X157829819Y-72894880D01*
X157829819Y-72894880D02*
X157829819Y-72275833D01*
X142049819Y-82333333D02*
X142764104Y-82333333D01*
X142764104Y-82333333D02*
X142906961Y-82380952D01*
X142906961Y-82380952D02*
X143002200Y-82476190D01*
X143002200Y-82476190D02*
X143049819Y-82619047D01*
X143049819Y-82619047D02*
X143049819Y-82714285D01*
X143049819Y-81333333D02*
X143049819Y-81904761D01*
X143049819Y-81619047D02*
X142049819Y-81619047D01*
X142049819Y-81619047D02*
X142192676Y-81714285D01*
X142192676Y-81714285D02*
X142287914Y-81809523D01*
X142287914Y-81809523D02*
X142335533Y-81904761D01*
X94361905Y-69304819D02*
X94361905Y-68304819D01*
X94361905Y-68304819D02*
X94600000Y-68304819D01*
X94600000Y-68304819D02*
X94742857Y-68352438D01*
X94742857Y-68352438D02*
X94838095Y-68447676D01*
X94838095Y-68447676D02*
X94885714Y-68542914D01*
X94885714Y-68542914D02*
X94933333Y-68733390D01*
X94933333Y-68733390D02*
X94933333Y-68876247D01*
X94933333Y-68876247D02*
X94885714Y-69066723D01*
X94885714Y-69066723D02*
X94838095Y-69161961D01*
X94838095Y-69161961D02*
X94742857Y-69257200D01*
X94742857Y-69257200D02*
X94600000Y-69304819D01*
X94600000Y-69304819D02*
X94361905Y-69304819D01*
X95885714Y-69304819D02*
X95314286Y-69304819D01*
X95600000Y-69304819D02*
X95600000Y-68304819D01*
X95600000Y-68304819D02*
X95504762Y-68447676D01*
X95504762Y-68447676D02*
X95409524Y-68542914D01*
X95409524Y-68542914D02*
X95314286Y-68590533D01*
X107229580Y-73666666D02*
X107277200Y-73714285D01*
X107277200Y-73714285D02*
X107324819Y-73857142D01*
X107324819Y-73857142D02*
X107324819Y-73952380D01*
X107324819Y-73952380D02*
X107277200Y-74095237D01*
X107277200Y-74095237D02*
X107181961Y-74190475D01*
X107181961Y-74190475D02*
X107086723Y-74238094D01*
X107086723Y-74238094D02*
X106896247Y-74285713D01*
X106896247Y-74285713D02*
X106753390Y-74285713D01*
X106753390Y-74285713D02*
X106562914Y-74238094D01*
X106562914Y-74238094D02*
X106467676Y-74190475D01*
X106467676Y-74190475D02*
X106372438Y-74095237D01*
X106372438Y-74095237D02*
X106324819Y-73952380D01*
X106324819Y-73952380D02*
X106324819Y-73857142D01*
X106324819Y-73857142D02*
X106372438Y-73714285D01*
X106372438Y-73714285D02*
X106420057Y-73666666D01*
X106324819Y-72761904D02*
X106324819Y-73238094D01*
X106324819Y-73238094D02*
X106801009Y-73285713D01*
X106801009Y-73285713D02*
X106753390Y-73238094D01*
X106753390Y-73238094D02*
X106705771Y-73142856D01*
X106705771Y-73142856D02*
X106705771Y-72904761D01*
X106705771Y-72904761D02*
X106753390Y-72809523D01*
X106753390Y-72809523D02*
X106801009Y-72761904D01*
X106801009Y-72761904D02*
X106896247Y-72714285D01*
X106896247Y-72714285D02*
X107134342Y-72714285D01*
X107134342Y-72714285D02*
X107229580Y-72761904D01*
X107229580Y-72761904D02*
X107277200Y-72809523D01*
X107277200Y-72809523D02*
X107324819Y-72904761D01*
X107324819Y-72904761D02*
X107324819Y-73142856D01*
X107324819Y-73142856D02*
X107277200Y-73238094D01*
X107277200Y-73238094D02*
X107229580Y-73285713D01*
X110729580Y-71666666D02*
X110777200Y-71714285D01*
X110777200Y-71714285D02*
X110824819Y-71857142D01*
X110824819Y-71857142D02*
X110824819Y-71952380D01*
X110824819Y-71952380D02*
X110777200Y-72095237D01*
X110777200Y-72095237D02*
X110681961Y-72190475D01*
X110681961Y-72190475D02*
X110586723Y-72238094D01*
X110586723Y-72238094D02*
X110396247Y-72285713D01*
X110396247Y-72285713D02*
X110253390Y-72285713D01*
X110253390Y-72285713D02*
X110062914Y-72238094D01*
X110062914Y-72238094D02*
X109967676Y-72190475D01*
X109967676Y-72190475D02*
X109872438Y-72095237D01*
X109872438Y-72095237D02*
X109824819Y-71952380D01*
X109824819Y-71952380D02*
X109824819Y-71857142D01*
X109824819Y-71857142D02*
X109872438Y-71714285D01*
X109872438Y-71714285D02*
X109920057Y-71666666D01*
X110158152Y-70809523D02*
X110824819Y-70809523D01*
X109777200Y-71047618D02*
X110491485Y-71285713D01*
X110491485Y-71285713D02*
X110491485Y-70666666D01*
X94333333Y-81359580D02*
X94285714Y-81407200D01*
X94285714Y-81407200D02*
X94142857Y-81454819D01*
X94142857Y-81454819D02*
X94047619Y-81454819D01*
X94047619Y-81454819D02*
X93904762Y-81407200D01*
X93904762Y-81407200D02*
X93809524Y-81311961D01*
X93809524Y-81311961D02*
X93761905Y-81216723D01*
X93761905Y-81216723D02*
X93714286Y-81026247D01*
X93714286Y-81026247D02*
X93714286Y-80883390D01*
X93714286Y-80883390D02*
X93761905Y-80692914D01*
X93761905Y-80692914D02*
X93809524Y-80597676D01*
X93809524Y-80597676D02*
X93904762Y-80502438D01*
X93904762Y-80502438D02*
X94047619Y-80454819D01*
X94047619Y-80454819D02*
X94142857Y-80454819D01*
X94142857Y-80454819D02*
X94285714Y-80502438D01*
X94285714Y-80502438D02*
X94333333Y-80550057D01*
X94666667Y-80454819D02*
X95285714Y-80454819D01*
X95285714Y-80454819D02*
X94952381Y-80835771D01*
X94952381Y-80835771D02*
X95095238Y-80835771D01*
X95095238Y-80835771D02*
X95190476Y-80883390D01*
X95190476Y-80883390D02*
X95238095Y-80931009D01*
X95238095Y-80931009D02*
X95285714Y-81026247D01*
X95285714Y-81026247D02*
X95285714Y-81264342D01*
X95285714Y-81264342D02*
X95238095Y-81359580D01*
X95238095Y-81359580D02*
X95190476Y-81407200D01*
X95190476Y-81407200D02*
X95095238Y-81454819D01*
X95095238Y-81454819D02*
X94809524Y-81454819D01*
X94809524Y-81454819D02*
X94714286Y-81407200D01*
X94714286Y-81407200D02*
X94666667Y-81359580D01*
X94883333Y-74179580D02*
X94835714Y-74227200D01*
X94835714Y-74227200D02*
X94692857Y-74274819D01*
X94692857Y-74274819D02*
X94597619Y-74274819D01*
X94597619Y-74274819D02*
X94454762Y-74227200D01*
X94454762Y-74227200D02*
X94359524Y-74131961D01*
X94359524Y-74131961D02*
X94311905Y-74036723D01*
X94311905Y-74036723D02*
X94264286Y-73846247D01*
X94264286Y-73846247D02*
X94264286Y-73703390D01*
X94264286Y-73703390D02*
X94311905Y-73512914D01*
X94311905Y-73512914D02*
X94359524Y-73417676D01*
X94359524Y-73417676D02*
X94454762Y-73322438D01*
X94454762Y-73322438D02*
X94597619Y-73274819D01*
X94597619Y-73274819D02*
X94692857Y-73274819D01*
X94692857Y-73274819D02*
X94835714Y-73322438D01*
X94835714Y-73322438D02*
X94883333Y-73370057D01*
X95264286Y-73370057D02*
X95311905Y-73322438D01*
X95311905Y-73322438D02*
X95407143Y-73274819D01*
X95407143Y-73274819D02*
X95645238Y-73274819D01*
X95645238Y-73274819D02*
X95740476Y-73322438D01*
X95740476Y-73322438D02*
X95788095Y-73370057D01*
X95788095Y-73370057D02*
X95835714Y-73465295D01*
X95835714Y-73465295D02*
X95835714Y-73560533D01*
X95835714Y-73560533D02*
X95788095Y-73703390D01*
X95788095Y-73703390D02*
X95216667Y-74274819D01*
X95216667Y-74274819D02*
X95835714Y-74274819D01*
X89933333Y-77179580D02*
X89885714Y-77227200D01*
X89885714Y-77227200D02*
X89742857Y-77274819D01*
X89742857Y-77274819D02*
X89647619Y-77274819D01*
X89647619Y-77274819D02*
X89504762Y-77227200D01*
X89504762Y-77227200D02*
X89409524Y-77131961D01*
X89409524Y-77131961D02*
X89361905Y-77036723D01*
X89361905Y-77036723D02*
X89314286Y-76846247D01*
X89314286Y-76846247D02*
X89314286Y-76703390D01*
X89314286Y-76703390D02*
X89361905Y-76512914D01*
X89361905Y-76512914D02*
X89409524Y-76417676D01*
X89409524Y-76417676D02*
X89504762Y-76322438D01*
X89504762Y-76322438D02*
X89647619Y-76274819D01*
X89647619Y-76274819D02*
X89742857Y-76274819D01*
X89742857Y-76274819D02*
X89885714Y-76322438D01*
X89885714Y-76322438D02*
X89933333Y-76370057D01*
X90885714Y-77274819D02*
X90314286Y-77274819D01*
X90600000Y-77274819D02*
X90600000Y-76274819D01*
X90600000Y-76274819D02*
X90504762Y-76417676D01*
X90504762Y-76417676D02*
X90409524Y-76512914D01*
X90409524Y-76512914D02*
X90314286Y-76560533D01*
X117956785Y-58666009D02*
X118099642Y-58713628D01*
X118099642Y-58713628D02*
X118147261Y-58761247D01*
X118147261Y-58761247D02*
X118194880Y-58856485D01*
X118194880Y-58856485D02*
X118194880Y-58999342D01*
X118194880Y-58999342D02*
X118147261Y-59094580D01*
X118147261Y-59094580D02*
X118099642Y-59142200D01*
X118099642Y-59142200D02*
X118004404Y-59189819D01*
X118004404Y-59189819D02*
X117623452Y-59189819D01*
X117623452Y-59189819D02*
X117623452Y-58189819D01*
X117623452Y-58189819D02*
X117956785Y-58189819D01*
X117956785Y-58189819D02*
X118052023Y-58237438D01*
X118052023Y-58237438D02*
X118099642Y-58285057D01*
X118099642Y-58285057D02*
X118147261Y-58380295D01*
X118147261Y-58380295D02*
X118147261Y-58475533D01*
X118147261Y-58475533D02*
X118099642Y-58570771D01*
X118099642Y-58570771D02*
X118052023Y-58618390D01*
X118052023Y-58618390D02*
X117956785Y-58666009D01*
X117956785Y-58666009D02*
X117623452Y-58666009D01*
X118480595Y-58189819D02*
X119052023Y-58189819D01*
X118766309Y-59189819D02*
X118766309Y-58189819D01*
X119909166Y-59189819D02*
X119337738Y-59189819D01*
X119623452Y-59189819D02*
X119623452Y-58189819D01*
X119623452Y-58189819D02*
X119528214Y-58332676D01*
X119528214Y-58332676D02*
X119432976Y-58427914D01*
X119432976Y-58427914D02*
X119337738Y-58475533D01*
D11*
%TO.C,U4*%
X115780000Y-69640000D02*
X118360000Y-69640000D01*
X118360000Y-70620000D02*
X118360000Y-69640000D01*
X118360000Y-73380000D02*
X118360000Y-74360000D01*
X118360000Y-74360000D02*
X115640000Y-74360000D01*
X115230000Y-69790000D02*
X114990000Y-69460000D01*
X115470000Y-69460000D01*
X115230000Y-69790000D01*
G36*
X115230000Y-69790000D02*
G01*
X114990000Y-69460000D01*
X115470000Y-69460000D01*
X115230000Y-69790000D01*
G37*
%TO.C,U3*%
X94500000Y-88560000D02*
X95300000Y-88560000D01*
X94500000Y-88560000D02*
X93700000Y-88560000D01*
X94500000Y-85440000D02*
X95300000Y-85440000D01*
X94500000Y-85440000D02*
X93700000Y-85440000D01*
X96040000Y-88840000D02*
X95560000Y-88840000D01*
X95800000Y-88510000D01*
X96040000Y-88840000D01*
G36*
X96040000Y-88840000D02*
G01*
X95560000Y-88840000D01*
X95800000Y-88510000D01*
X96040000Y-88840000D01*
G37*
%TO.C,U2*%
X129970000Y-117040000D02*
X129970000Y-116540000D01*
X130470000Y-116540000D01*
X129970000Y-117040000D01*
G36*
X129970000Y-117040000D02*
G01*
X129970000Y-116540000D01*
X130470000Y-116540000D01*
X129970000Y-117040000D01*
G37*
X111725000Y-97685000D02*
X112725000Y-97685000D01*
X111725000Y-98465000D02*
X111725000Y-97685000D01*
X111725000Y-123425000D02*
X111725000Y-117010000D01*
X129965000Y-97685000D02*
X128965000Y-97685000D01*
X129965000Y-98465000D02*
X129965000Y-97685000D01*
X129965000Y-123425000D02*
X111725000Y-123425000D01*
X129965000Y-123425000D02*
X129965000Y-117265000D01*
%TO.C,U1*%
X90462500Y-72990000D02*
X89662500Y-72990000D01*
X90462500Y-72990000D02*
X91262500Y-72990000D01*
X90462500Y-76110000D02*
X89662500Y-76110000D01*
X90462500Y-76110000D02*
X91262500Y-76110000D01*
X89162500Y-73040000D02*
X88922500Y-72710000D01*
X89402500Y-72710000D01*
X89162500Y-73040000D01*
G36*
X89162500Y-73040000D02*
G01*
X88922500Y-72710000D01*
X89402500Y-72710000D01*
X89162500Y-73040000D01*
G37*
%TO.C,R5*%
X100265000Y-85227064D02*
X100265000Y-84772936D01*
X101735000Y-85227064D02*
X101735000Y-84772936D01*
%TO.C,R4*%
X89872936Y-69765000D02*
X90327064Y-69765000D01*
X89872936Y-71235000D02*
X90327064Y-71235000D01*
%TO.C,R3*%
X86835000Y-72860436D02*
X86835000Y-73314564D01*
X85365000Y-72860436D02*
X85365000Y-73314564D01*
%TO.C,R2*%
X89265000Y-82814564D02*
X89265000Y-82360436D01*
X90735000Y-82814564D02*
X90735000Y-82360436D01*
%TO.C,R1*%
X97765000Y-93227064D02*
X97765000Y-92772936D01*
X99235000Y-93227064D02*
X99235000Y-92772936D01*
%TO.C,Q2*%
X102500000Y-91440000D02*
X101850000Y-91440000D01*
X102500000Y-91440000D02*
X103150000Y-91440000D01*
X102500000Y-94560000D02*
X101850000Y-94560000D01*
X102500000Y-94560000D02*
X103150000Y-94560000D01*
X101337500Y-91490000D02*
X101097500Y-91160000D01*
X101577500Y-91160000D01*
X101337500Y-91490000D01*
G36*
X101337500Y-91490000D02*
G01*
X101097500Y-91160000D01*
X101577500Y-91160000D01*
X101337500Y-91490000D01*
G37*
%TO.C,Q1*%
X102500000Y-87440000D02*
X101850000Y-87440000D01*
X102500000Y-87440000D02*
X103150000Y-87440000D01*
X102500000Y-90560000D02*
X101850000Y-90560000D01*
X102500000Y-90560000D02*
X103150000Y-90560000D01*
X101337500Y-87490000D02*
X101097500Y-87160000D01*
X101577500Y-87160000D01*
X101337500Y-87490000D01*
G36*
X101337500Y-87490000D02*
G01*
X101097500Y-87160000D01*
X101577500Y-87160000D01*
X101337500Y-87490000D01*
G37*
%TO.C,J12*%
X117330000Y-93605000D02*
X116000000Y-93605000D01*
X117330000Y-92275000D02*
X117330000Y-93605000D01*
X117330000Y-91005000D02*
X117330000Y-88405000D01*
X117330000Y-91005000D02*
X114670000Y-91005000D01*
X117330000Y-88405000D02*
X114670000Y-88405000D01*
X114670000Y-91005000D02*
X114670000Y-88405000D01*
%TO.C,J11*%
X112870000Y-76670000D02*
X112870000Y-78000000D01*
X111540000Y-76670000D02*
X112870000Y-76670000D01*
X110270000Y-76670000D02*
X107670000Y-76670000D01*
X110270000Y-76670000D02*
X110270000Y-79330000D01*
X107670000Y-76670000D02*
X107670000Y-79330000D01*
X110270000Y-79330000D02*
X107670000Y-79330000D01*
%TO.C,J10*%
X123550000Y-83330000D02*
X123550000Y-82000000D01*
X124880000Y-83330000D02*
X123550000Y-83330000D01*
X126150000Y-83330000D02*
X138910000Y-83330000D01*
X126150000Y-83330000D02*
X126150000Y-80670000D01*
X138910000Y-83330000D02*
X138910000Y-80670000D01*
X126150000Y-80670000D02*
X138910000Y-80670000D01*
%TO.C,J9*%
X155830000Y-99270000D02*
X155830000Y-137430000D01*
X153170000Y-137430000D02*
X155830000Y-137430000D01*
X153170000Y-99270000D02*
X155830000Y-99270000D01*
X153170000Y-99270000D02*
X153170000Y-137430000D01*
X153170000Y-98000000D02*
X153170000Y-96670000D01*
X153170000Y-96670000D02*
X154500000Y-96670000D01*
%TO.C,J8*%
X82170000Y-97630000D02*
X83500000Y-97630000D01*
X82170000Y-98960000D02*
X82170000Y-97630000D01*
X82170000Y-100230000D02*
X82170000Y-138390000D01*
X82170000Y-100230000D02*
X84830000Y-100230000D01*
X82170000Y-138390000D02*
X84830000Y-138390000D01*
X84830000Y-100230000D02*
X84830000Y-138390000D01*
%TO.C,J7*%
X93105000Y-93170000D02*
X93105000Y-94500000D01*
X91775000Y-93170000D02*
X93105000Y-93170000D01*
X90505000Y-93170000D02*
X87905000Y-93170000D01*
X90505000Y-93170000D02*
X90505000Y-95830000D01*
X87905000Y-93170000D02*
X87905000Y-95830000D01*
X90505000Y-95830000D02*
X87905000Y-95830000D01*
%TO.C,J6*%
X99330000Y-84105000D02*
X98000000Y-84105000D01*
X99330000Y-82775000D02*
X99330000Y-84105000D01*
X99330000Y-81505000D02*
X99330000Y-78905000D01*
X99330000Y-81505000D02*
X96670000Y-81505000D01*
X99330000Y-78905000D02*
X96670000Y-78905000D01*
X96670000Y-81505000D02*
X96670000Y-78905000D01*
%TO.C,J5*%
X104330000Y-80105000D02*
X103000000Y-80105000D01*
X104330000Y-78775000D02*
X104330000Y-80105000D01*
X104330000Y-77505000D02*
X104330000Y-74905000D01*
X104330000Y-77505000D02*
X101670000Y-77505000D01*
X104330000Y-74905000D02*
X101670000Y-74905000D01*
X101670000Y-77505000D02*
X101670000Y-74905000D01*
%TO.C,J4*%
X82830000Y-77605000D02*
X81500000Y-77605000D01*
X82830000Y-76275000D02*
X82830000Y-77605000D01*
X82830000Y-75005000D02*
X82830000Y-72405000D01*
X82830000Y-75005000D02*
X80170000Y-75005000D01*
X82830000Y-72405000D02*
X80170000Y-72405000D01*
X80170000Y-75005000D02*
X80170000Y-72405000D01*
%TO.C,J3*%
X90830000Y-91605000D02*
X89500000Y-91605000D01*
X90830000Y-90275000D02*
X90830000Y-91605000D01*
X90830000Y-89005000D02*
X90830000Y-86405000D01*
X90830000Y-89005000D02*
X88170000Y-89005000D01*
X90830000Y-86405000D02*
X88170000Y-86405000D01*
X88170000Y-89005000D02*
X88170000Y-86405000D01*
%TO.C,J2*%
X156375000Y-71612500D02*
X156375000Y-72942500D01*
X155045000Y-71612500D02*
X156375000Y-71612500D01*
X153775000Y-71612500D02*
X143555000Y-71612500D01*
X153775000Y-71612500D02*
X153775000Y-74272500D01*
X143555000Y-71612500D02*
X143555000Y-74272500D01*
X153775000Y-74272500D02*
X143555000Y-74272500D01*
%TO.C,J1*%
X146195000Y-80670000D02*
X156415000Y-80670000D01*
X156415000Y-83330000D02*
X156415000Y-80670000D01*
X146195000Y-83330000D02*
X146195000Y-80670000D01*
X146195000Y-83330000D02*
X156415000Y-83330000D01*
X144925000Y-83330000D02*
X143595000Y-83330000D01*
X143595000Y-83330000D02*
X143595000Y-82000000D01*
%TO.C,D1*%
X93415000Y-69540000D02*
X93415000Y-71460000D01*
X93415000Y-71460000D02*
X96100000Y-71460000D01*
X96100000Y-69540000D02*
X93415000Y-69540000D01*
%TO.C,C5*%
X107815000Y-73761252D02*
X107815000Y-73238748D01*
X109285000Y-73761252D02*
X109285000Y-73238748D01*
%TO.C,C4*%
X111315000Y-71761252D02*
X111315000Y-71238748D01*
X112785000Y-71761252D02*
X112785000Y-71238748D01*
%TO.C,C3*%
X94311252Y-83735000D02*
X93788748Y-83735000D01*
X94311252Y-82265000D02*
X93788748Y-82265000D01*
%TO.C,C2*%
X94788748Y-74765000D02*
X95311252Y-74765000D01*
X94788748Y-76235000D02*
X95311252Y-76235000D01*
%TO.C,C1*%
X89838748Y-77765000D02*
X90361252Y-77765000D01*
X89838748Y-79235000D02*
X90361252Y-79235000D01*
%TO.C,BT1*%
X157742500Y-67785000D02*
X79742500Y-67785000D01*
X157742500Y-47685000D02*
X157742500Y-67785000D01*
X79742500Y-67785000D02*
X79742500Y-47685000D01*
X79742500Y-47685000D02*
X157742500Y-47685000D01*
%TD*%
M02*
