M48
; DRILL file {KiCad 8.0.1} date 2024-04-05T23:38:17+0200
; FORMAT={-:-/ absolute / inch / decimal}
; #@! TF.CreationDate,2024-04-05T23:38:17+02:00
; #@! TF.GenerationSoftware,Kicad,Pcbnew,8.0.1
; #@! TF.FileFunction,Plated,1,2,PTH
FMAT,2
INCH
; #@! TA.AperFunction,Plated,PTH,ComponentDrill
T1C0.0079
; #@! TA.AperFunction,Plated,PTH,ViaDrill
T2C0.0157
; #@! TA.AperFunction,Plated,PTH,ComponentDrill
T3C0.0394
; #@! TA.AperFunction,Plated,PTH,ComponentDrill
T4C0.0787
%
G90
G05
T1
X4.7244Y-4.2406
X4.7244Y-4.3007
X4.7544Y-4.2106
X4.7544Y-4.2707
X4.7544Y-4.3307
X4.7844Y-4.2406
X4.7844Y-4.3007
X4.8145Y-4.2106
X4.8145Y-4.2707
X4.8145Y-4.3307
X4.8445Y-4.2406
X4.8445Y-4.3007
T2
X3.0512Y-4.1339
X3.1102Y-3.8189
X3.189Y-3.7992
X3.2168Y-3.8271
X3.3268Y-2.9921
X3.3858Y-4.3675
X3.3858Y-4.4488
X3.4449Y-2.9724
X3.4646Y-2.8346
X3.5098Y-3.0906
X3.5221Y-3.1604
X3.6024Y-2.8346
X3.7205Y-3.5433
X3.7205Y-5.3937
X3.7598Y-3.3268
X3.7598Y-3.5039
X3.7598Y-4.4675
X3.8145Y-3.4887
X3.937Y-3.4646
X3.9961Y-3.189
X3.9961Y-3.5039
X4.0551Y-3.3858
X4.0945Y-3.3071
X4.0945Y-4.1535
X4.1732Y-3.0709
X4.1732Y-4.5866
X4.2328Y-4.5487
X4.2717Y-4.3307
X4.2913Y-4.4094
X4.2913Y-4.5669
X4.3214Y-4.0851
X4.3307Y-4.311
X4.3504Y-4.2126
X4.3898Y-2.9134
X4.3898Y-2.9921
X4.4132Y-3.9596
X4.4132Y-4.0596
X4.4132Y-4.1096
X4.4132Y-4.5096
X4.5669Y-3.1299
X4.5669Y-3.3268
X4.5669Y-3.7795
X4.6292Y-4.334
X4.7047Y-4.4094
X4.7244Y-3.7205
X4.7441Y-2.7756
X4.8031Y-4.4291
X4.8819Y-3.563
X4.8819Y-4.1142
X4.9213Y-3.9173
X4.9513Y-4.1836
X4.9803Y-3.6024
X4.9842Y-4.2362
X5.0197Y-3.622
X5.0482Y-3.9173
X5.1011Y-3.7822
X5.1772Y-3.3465
X5.1772Y-4.0157
X5.1969Y-4.1535
X5.1969Y-4.2717
X5.1969Y-4.3701
X5.1969Y-4.4291
X5.2165Y-3.7992
X5.2756Y-4.4685
X5.2953Y-4.5472
X5.3165Y-3.189
X5.3543Y-4.1142
X5.3937Y-3.4055
X5.3937Y-3.4449
X5.3937Y-3.4843
X5.4528Y-3.3465
T3
X3.2087Y-2.903
X3.2087Y-3.003
X3.2874Y-3.8961
X3.2874Y-3.9961
X3.2874Y-4.0961
X3.2874Y-4.1961
X3.2874Y-4.2961
X3.2874Y-4.3961
X3.2874Y-4.4961
X3.2874Y-4.5961
X3.2874Y-4.6961
X3.2874Y-4.7961
X3.2874Y-4.8961
X3.2874Y-4.9961
X3.2874Y-5.0961
X3.2874Y-5.1961
X3.2874Y-5.2961
X3.2874Y-5.3961
X3.5132Y-3.7205
X3.5236Y-3.4541
X3.5236Y-3.5541
X3.6132Y-3.7205
X3.8583Y-3.1589
X3.8583Y-3.2589
X4.0551Y-3.0014
X4.0551Y-3.1014
X4.2913Y-3.0709
X4.3913Y-3.0709
X4.5669Y-3.5329
X4.5669Y-3.6329
X4.9165Y-3.2283
X5.0165Y-3.2283
X5.1165Y-3.2283
X5.2165Y-3.2283
X5.3165Y-3.2283
X5.4165Y-3.2283
X5.7041Y-2.8718
X5.7057Y-3.2283
X5.8041Y-2.8718
X5.8057Y-3.2283
X5.9041Y-2.8718
X5.9057Y-3.2283
X6.0041Y-2.8718
X6.0057Y-3.2283
X6.0827Y-3.8583
X6.0827Y-3.9583
X6.0827Y-4.0583
X6.0827Y-4.1583
X6.0827Y-4.2583
X6.0827Y-4.3583
X6.0827Y-4.4583
X6.0827Y-4.5583
X6.0827Y-4.6583
X6.0827Y-4.7583
X6.0827Y-4.8583
X6.0827Y-4.9583
X6.0827Y-5.0583
X6.0827Y-5.1583
X6.0827Y-5.2583
X6.0827Y-5.3583
X6.1041Y-2.8718
X6.1057Y-3.2283
T4
X3.2969Y-2.273
X6.0529Y-2.273
M30
