%TF.GenerationSoftware,KiCad,Pcbnew,8.0.1*%
%TF.CreationDate,2024-04-05T23:37:33+02:00*%
%TF.ProjectId,power_system_board,706f7765-725f-4737-9973-74656d5f626f,rev?*%
%TF.SameCoordinates,Original*%
%TF.FileFunction,Paste,Top*%
%TF.FilePolarity,Positive*%
%FSLAX46Y46*%
G04 Gerber Fmt 4.6, Leading zero omitted, Abs format (unit mm)*
G04 Created by KiCad (PCBNEW 8.0.1) date 2024-04-05 23:37:33*
%MOMM*%
%LPD*%
G01*
G04 APERTURE LIST*
G04 Aperture macros list*
%AMRoundRect*
0 Rectangle with rounded corners*
0 $1 Rounding radius*
0 $2 $3 $4 $5 $6 $7 $8 $9 X,Y pos of 4 corners*
0 Add a 4 corners polygon primitive as box body*
4,1,4,$2,$3,$4,$5,$6,$7,$8,$9,$2,$3,0*
0 Add four circle primitives for the rounded corners*
1,1,$1+$1,$2,$3*
1,1,$1+$1,$4,$5*
1,1,$1+$1,$6,$7*
1,1,$1+$1,$8,$9*
0 Add four rect primitives between the rounded corners*
20,1,$1+$1,$2,$3,$4,$5,0*
20,1,$1+$1,$4,$5,$6,$7,0*
20,1,$1+$1,$6,$7,$8,$9,0*
20,1,$1+$1,$8,$9,$2,$3,0*%
%AMFreePoly0*
4,1,9,3.862500,-0.866500,0.737500,-0.866500,0.737500,-0.450000,-0.737500,-0.450000,-0.737500,0.450000,0.737500,0.450000,0.737500,0.866500,3.862500,0.866500,3.862500,-0.866500,3.862500,-0.866500,$1*%
G04 Aperture macros list end*
%ADD10RoundRect,0.225000X-0.425000X-0.225000X0.425000X-0.225000X0.425000X0.225000X-0.425000X0.225000X0*%
%ADD11FreePoly0,0.000000*%
%ADD12RoundRect,0.150000X0.512500X0.150000X-0.512500X0.150000X-0.512500X-0.150000X0.512500X-0.150000X0*%
%ADD13R,1.050000X1.050000*%
%ADD14R,1.500000X0.900000*%
%ADD15R,0.900000X1.500000*%
%ADD16RoundRect,0.150000X-0.512500X-0.150000X0.512500X-0.150000X0.512500X0.150000X-0.512500X0.150000X0*%
%ADD17RoundRect,0.250000X0.450000X-0.262500X0.450000X0.262500X-0.450000X0.262500X-0.450000X-0.262500X0*%
%ADD18RoundRect,0.250000X-0.262500X-0.450000X0.262500X-0.450000X0.262500X0.450000X-0.262500X0.450000X0*%
%ADD19RoundRect,0.250000X-0.450000X0.262500X-0.450000X-0.262500X0.450000X-0.262500X0.450000X0.262500X0*%
%ADD20RoundRect,0.150000X-0.587500X-0.150000X0.587500X-0.150000X0.587500X0.150000X-0.587500X0.150000X0*%
%ADD21RoundRect,0.243750X-0.243750X-0.456250X0.243750X-0.456250X0.243750X0.456250X-0.243750X0.456250X0*%
%ADD22RoundRect,0.250000X0.475000X-0.250000X0.475000X0.250000X-0.475000X0.250000X-0.475000X-0.250000X0*%
%ADD23RoundRect,0.250000X0.250000X0.475000X-0.250000X0.475000X-0.250000X-0.475000X0.250000X-0.475000X0*%
%ADD24RoundRect,0.250000X-0.250000X-0.475000X0.250000X-0.475000X0.250000X0.475000X-0.250000X0.475000X0*%
G04 APERTURE END LIST*
D10*
%TO.C,U4*%
X115050000Y-70500000D03*
D11*
X115137500Y-72000000D03*
D10*
X115050000Y-73500000D03*
%TD*%
D12*
%TO.C,U3*%
X95637500Y-87950000D03*
X95637500Y-87000000D03*
X95637500Y-86050000D03*
X93362500Y-86050000D03*
X93362500Y-87000000D03*
X93362500Y-87950000D03*
%TD*%
D13*
%TO.C,U2*%
X120000000Y-106950000D03*
X120000000Y-108475000D03*
X120000000Y-110000000D03*
X121525000Y-106950000D03*
X121525000Y-108475000D03*
X121525000Y-110000000D03*
X123050000Y-106950000D03*
X123050000Y-108475000D03*
X123050000Y-110000000D03*
D14*
X112095000Y-115815000D03*
X112095000Y-114545000D03*
X112095000Y-113275000D03*
X112095000Y-112005000D03*
X112095000Y-110735000D03*
X112095000Y-109465000D03*
X112095000Y-108195000D03*
X112095000Y-106925000D03*
X112095000Y-105655000D03*
X112095000Y-104385000D03*
X112095000Y-103115000D03*
X112095000Y-101845000D03*
X112095000Y-100575000D03*
X112095000Y-99305000D03*
D15*
X115125000Y-98055000D03*
X116395000Y-98055000D03*
X117665000Y-98055000D03*
X118935000Y-98055000D03*
X120205000Y-98055000D03*
X121475000Y-98055000D03*
X122745000Y-98055000D03*
X124015000Y-98055000D03*
X125285000Y-98055000D03*
X126555000Y-98055000D03*
D14*
X129595000Y-99305000D03*
X129595000Y-100575000D03*
X129595000Y-101845000D03*
X129595000Y-103115000D03*
X129595000Y-104385000D03*
X129595000Y-105655000D03*
X129595000Y-106925000D03*
X129595000Y-108195000D03*
X129595000Y-109465000D03*
X129595000Y-110735000D03*
X129595000Y-112005000D03*
X129595000Y-113275000D03*
X129595000Y-114545000D03*
X129595000Y-115815000D03*
%TD*%
D16*
%TO.C,U1*%
X89325000Y-73600000D03*
X89325000Y-74550000D03*
X89325000Y-75500000D03*
X91600000Y-75500000D03*
X91600000Y-73600000D03*
%TD*%
D17*
%TO.C,R5*%
X101000000Y-85912500D03*
X101000000Y-84087500D03*
%TD*%
D18*
%TO.C,R4*%
X89187500Y-70500000D03*
X91012500Y-70500000D03*
%TD*%
D19*
%TO.C,R3*%
X86100000Y-72175000D03*
X86100000Y-74000000D03*
%TD*%
D17*
%TO.C,R2*%
X90000000Y-83500000D03*
X90000000Y-81675000D03*
%TD*%
%TO.C,R1*%
X98500000Y-93912500D03*
X98500000Y-92087500D03*
%TD*%
D20*
%TO.C,Q2*%
X101562500Y-92050000D03*
X101562500Y-93950000D03*
X103437500Y-93000000D03*
%TD*%
%TO.C,Q1*%
X101562500Y-88050000D03*
X101562500Y-89950000D03*
X103437500Y-89000000D03*
%TD*%
D21*
%TO.C,D1*%
X94162500Y-70500000D03*
X96037500Y-70500000D03*
%TD*%
D22*
%TO.C,C5*%
X108550000Y-74450000D03*
X108550000Y-72550000D03*
%TD*%
%TO.C,C4*%
X112050000Y-72450000D03*
X112050000Y-70550000D03*
%TD*%
D23*
%TO.C,C3*%
X95000000Y-83000000D03*
X93100000Y-83000000D03*
%TD*%
D24*
%TO.C,C2*%
X94100000Y-75500000D03*
X96000000Y-75500000D03*
%TD*%
%TO.C,C1*%
X89150000Y-78500000D03*
X91050000Y-78500000D03*
%TD*%
M02*
