%TF.GenerationSoftware,KiCad,Pcbnew,8.0.1*%
%TF.CreationDate,2024-04-05T23:37:32+02:00*%
%TF.ProjectId,power_system_board,706f7765-725f-4737-9973-74656d5f626f,rev?*%
%TF.SameCoordinates,Original*%
%TF.FileFunction,Copper,L2,Bot*%
%TF.FilePolarity,Positive*%
%FSLAX46Y46*%
G04 Gerber Fmt 4.6, Leading zero omitted, Abs format (unit mm)*
G04 Created by KiCad (PCBNEW 8.0.1) date 2024-04-05 23:37:32*
%MOMM*%
%LPD*%
G01*
G04 APERTURE LIST*
%TA.AperFunction,HeatsinkPad*%
%ADD10C,0.600000*%
%TD*%
%TA.AperFunction,ComponentPad*%
%ADD11R,1.700000X1.700000*%
%TD*%
%TA.AperFunction,ComponentPad*%
%ADD12O,1.700000X1.700000*%
%TD*%
%TA.AperFunction,ComponentPad*%
%ADD13C,3.500000*%
%TD*%
%TA.AperFunction,ComponentPad*%
%ADD14R,3.500000X3.500000*%
%TD*%
%TA.AperFunction,ViaPad*%
%ADD15C,0.800000*%
%TD*%
%TA.AperFunction,Conductor*%
%ADD16C,0.250000*%
%TD*%
G04 APERTURE END LIST*
D10*
%TO.P,U2,39,GND*%
%TO.N,GND*%
X120000000Y-107712500D03*
X120000000Y-109237500D03*
X120762500Y-106950000D03*
X120762500Y-108475000D03*
X120762500Y-110000000D03*
X121525000Y-107712500D03*
X121525000Y-109237500D03*
X122287500Y-106950000D03*
X122287500Y-108475000D03*
X122287500Y-110000000D03*
X123050000Y-107712500D03*
X123050000Y-109237500D03*
%TD*%
D11*
%TO.P,J12,1,Pin_1*%
%TO.N,+3V3*%
X116000000Y-92275000D03*
D12*
%TO.P,J12,2,Pin_2*%
%TO.N,Net-(J12-Pin_2)*%
X116000000Y-89735000D03*
%TD*%
D11*
%TO.P,J11,1,Pin_1*%
%TO.N,Net-(J11-Pin_1)*%
X111540000Y-78000000D03*
D12*
%TO.P,J11,2,Pin_2*%
%TO.N,+BATT*%
X109000000Y-78000000D03*
%TD*%
D11*
%TO.P,J10,1,Pin_1*%
%TO.N,+BATT*%
X124880000Y-82000000D03*
D12*
%TO.P,J10,2,Pin_2*%
%TO.N,-BATT*%
X127420000Y-82000000D03*
%TO.P,J10,3,Pin_3*%
%TO.N,VBUS*%
X129960000Y-82000000D03*
%TO.P,J10,4,Pin_4*%
%TO.N,+3V3*%
X132500000Y-82000000D03*
%TO.P,J10,5,Pin_5*%
%TO.N,GND*%
X135040000Y-82000000D03*
%TO.P,J10,6,Pin_6*%
X137580000Y-82000000D03*
%TD*%
%TO.P,J9,16,Pin_16*%
%TO.N,/EN_ESP*%
X154500000Y-136100000D03*
%TO.P,J9,15,Pin_15*%
%TO.N,+3V3*%
X154500000Y-133560000D03*
%TO.P,J9,14,Pin_14*%
%TO.N,/CMD*%
X154500000Y-131020000D03*
%TO.P,J9,13,Pin_13*%
%TO.N,/CLK*%
X154500000Y-128480000D03*
%TO.P,J9,12,Pin_12*%
%TO.N,/SD3*%
X154500000Y-125940000D03*
%TO.P,J9,11,Pin_11*%
%TO.N,/SD2*%
X154500000Y-123400000D03*
%TO.P,J9,10,Pin_10*%
%TO.N,/SD1*%
X154500000Y-120860000D03*
%TO.P,J9,9,Pin_9*%
%TO.N,/SD0*%
X154500000Y-118320000D03*
%TO.P,J9,8,Pin_8*%
%TO.N,/IO35*%
X154500000Y-115780000D03*
%TO.P,J9,7,Pin_7*%
%TO.N,/IO34*%
X154500000Y-113240000D03*
%TO.P,J9,6,Pin_6*%
%TO.N,/IO33*%
X154500000Y-110700000D03*
%TO.P,J9,5,Pin_5*%
%TO.N,/IO32*%
X154500000Y-108160000D03*
%TO.P,J9,4,Pin_4*%
%TO.N,/IO27*%
X154500000Y-105620000D03*
%TO.P,J9,3,Pin_3*%
%TO.N,/IO26*%
X154500000Y-103080000D03*
%TO.P,J9,2,Pin_2*%
%TO.N,/IO25*%
X154500000Y-100540000D03*
D11*
%TO.P,J9,1,Pin_1*%
%TO.N,/IO23*%
X154500000Y-98000000D03*
%TD*%
%TO.P,J8,1,Pin_1*%
%TO.N,/IO0*%
X83500000Y-98960000D03*
D12*
%TO.P,J8,2,Pin_2*%
%TO.N,/IO1*%
X83500000Y-101500000D03*
%TO.P,J8,3,Pin_3*%
%TO.N,/IO2*%
X83500000Y-104040000D03*
%TO.P,J8,4,Pin_4*%
%TO.N,/IO3*%
X83500000Y-106580000D03*
%TO.P,J8,5,Pin_5*%
%TO.N,/IO4*%
X83500000Y-109120000D03*
%TO.P,J8,6,Pin_6*%
%TO.N,/IO5*%
X83500000Y-111660000D03*
%TO.P,J8,7,Pin_7*%
%TO.N,/IO12*%
X83500000Y-114200000D03*
%TO.P,J8,8,Pin_8*%
%TO.N,/IO13*%
X83500000Y-116740000D03*
%TO.P,J8,9,Pin_9*%
%TO.N,/IO14*%
X83500000Y-119280000D03*
%TO.P,J8,10,Pin_10*%
%TO.N,/IO15*%
X83500000Y-121820000D03*
%TO.P,J8,11,Pin_11*%
%TO.N,/IO16*%
X83500000Y-124360000D03*
%TO.P,J8,12,Pin_12*%
%TO.N,/IO17*%
X83500000Y-126900000D03*
%TO.P,J8,13,Pin_13*%
%TO.N,/IO18*%
X83500000Y-129440000D03*
%TO.P,J8,14,Pin_14*%
%TO.N,/IO19*%
X83500000Y-131980000D03*
%TO.P,J8,15,Pin_15*%
%TO.N,/IO21*%
X83500000Y-134520000D03*
%TO.P,J8,16,Pin_16*%
%TO.N,/IO22*%
X83500000Y-137060000D03*
%TD*%
D11*
%TO.P,J7,1,Pin_1*%
%TO.N,GND*%
X91775000Y-94500000D03*
D12*
%TO.P,J7,2,Pin_2*%
%TO.N,Net-(BT1--)*%
X89235000Y-94500000D03*
%TD*%
D11*
%TO.P,J6,1,Pin_1*%
%TO.N,-BATT*%
X98000000Y-82775000D03*
D12*
%TO.P,J6,2,Pin_2*%
%TO.N,Net-(J5-Pin_1)*%
X98000000Y-80235000D03*
%TD*%
D11*
%TO.P,J5,1,Pin_1*%
%TO.N,Net-(J5-Pin_1)*%
X103000000Y-78775000D03*
D12*
%TO.P,J5,2,Pin_2*%
%TO.N,GND*%
X103000000Y-76235000D03*
%TD*%
D11*
%TO.P,J4,1,Pin_1*%
%TO.N,+BATT*%
X81500000Y-76275000D03*
D12*
%TO.P,J4,2,Pin_2*%
%TO.N,Net-(BT1-+)*%
X81500000Y-73735000D03*
%TD*%
D11*
%TO.P,J3,1,Pin_1*%
%TO.N,Net-(BT1--)*%
X89500000Y-90275000D03*
D12*
%TO.P,J3,2,Pin_2*%
%TO.N,-BATT*%
X89500000Y-87735000D03*
%TD*%
D11*
%TO.P,J2,1,Pin_1*%
%TO.N,/Shield*%
X155045000Y-72942500D03*
D12*
%TO.P,J2,2,Pin_2*%
%TO.N,/ID*%
X152505000Y-72942500D03*
%TO.P,J2,3,Pin_3*%
%TO.N,/D-*%
X149965000Y-72942500D03*
%TO.P,J2,4,Pin_4*%
%TO.N,/D+*%
X147425000Y-72942500D03*
%TO.P,J2,5,Pin_5*%
%TO.N,VBUS*%
X144885000Y-72942500D03*
%TD*%
%TO.P,J1,5,Pin_5*%
%TO.N,/Shield*%
X155085000Y-82000000D03*
%TO.P,J1,4,Pin_4*%
%TO.N,/ID*%
X152545000Y-82000000D03*
%TO.P,J1,3,Pin_3*%
%TO.N,/D-*%
X150005000Y-82000000D03*
%TO.P,J1,2,Pin_2*%
%TO.N,/D+*%
X147465000Y-82000000D03*
D11*
%TO.P,J1,1,Pin_1*%
%TO.N,VBUS*%
X144925000Y-82000000D03*
%TD*%
D13*
%TO.P,BT1,2,-*%
%TO.N,Net-(BT1--)*%
X153742500Y-57735000D03*
D14*
%TO.P,BT1,1,+*%
%TO.N,Net-(BT1-+)*%
X83742500Y-57735000D03*
%TD*%
D15*
%TO.N,-BATT*%
X95500000Y-84500000D03*
X95500000Y-89000000D03*
%TO.N,/IO18*%
X104000000Y-105500000D03*
X77500000Y-105000000D03*
%TO.N,/IO17*%
X79000000Y-97000000D03*
X112095000Y-103115000D03*
%TO.N,/IO16*%
X109762653Y-103762653D03*
X86000000Y-110935000D03*
X86000000Y-113000000D03*
%TO.N,/IO13*%
X107512652Y-115537958D03*
X125000000Y-99500000D03*
%TO.N,/SD0*%
X124000000Y-104500000D03*
X132000000Y-111000000D03*
X126598345Y-107598345D03*
X125762653Y-106262653D03*
%TO.N,/SD1*%
X122000000Y-112500000D03*
X132000000Y-112500000D03*
X119500000Y-112000000D03*
X117582653Y-110082653D03*
%TO.N,/SD2*%
X137000000Y-88500000D03*
X127500000Y-92000000D03*
%TO.N,/SD3*%
X126500000Y-91500000D03*
X137000000Y-87500000D03*
%TO.N,/CLK*%
X120000000Y-94500000D03*
X137000000Y-86500000D03*
%TO.N,/CMD*%
X131500000Y-85000000D03*
X138500000Y-85000000D03*
%TO.N,/IO14*%
X81707108Y-97207108D03*
X132500000Y-96500000D03*
%TO.N,/IO15*%
X116000000Y-96000000D03*
X81000000Y-96500000D03*
%TO.N,/IO19*%
X106000000Y-116500000D03*
X110500000Y-107000000D03*
%TO.N,/IO21*%
X110000000Y-109500000D03*
%TO.N,/IO22*%
X94500000Y-137000000D03*
X95500000Y-113475000D03*
%TO.N,/IO12*%
X109000000Y-116000000D03*
X128225000Y-99500000D03*
%TO.N,/IO1*%
X109000000Y-112000000D03*
X108500000Y-110000000D03*
%TO.N,+3V3*%
X124000000Y-90500000D03*
X129567653Y-96067653D03*
%TO.N,/EN_ESP*%
X134500000Y-115500000D03*
X134000000Y-113500000D03*
%TO.N,/IO35*%
X132000000Y-108500000D03*
%TO.N,/IO33*%
X132000000Y-105500000D03*
%TO.N,/IO25*%
X136000000Y-104500000D03*
%TO.N,/IO27*%
X131500000Y-102000000D03*
%TO.N,/IO23*%
X112095000Y-114545000D03*
%TO.N,/IO5*%
X112095000Y-104385000D03*
%TO.N,/IO4*%
X112095000Y-100575000D03*
%TO.N,Net-(J5-Pin_1)*%
X101500000Y-81000000D03*
X104000000Y-84000000D03*
%TO.N,+BATT*%
X89461112Y-80275000D03*
X89150000Y-78500000D03*
%TO.N,Net-(Q1-S)*%
X103000000Y-86000000D03*
X101500000Y-89000000D03*
%TO.N,Net-(Q1-G)*%
X96887346Y-88612653D03*
X100000000Y-88000000D03*
%TO.N,Net-(BT1--)*%
X94500000Y-90000000D03*
%TO.N,Net-(J12-Pin_2)*%
X116000000Y-84500000D03*
X116000000Y-79500000D03*
%TO.N,+BATT*%
X106000000Y-78000000D03*
%TO.N,GND*%
X120500000Y-70500000D03*
X135040000Y-81000000D03*
%TO.N,Net-(J11-Pin_1)*%
X111500000Y-74000000D03*
X111500000Y-76000000D03*
%TO.N,+BATT*%
X87500000Y-75500000D03*
X84500000Y-76000000D03*
%TO.N,Net-(U1-PROG)*%
X91500000Y-72000000D03*
X88000000Y-72000000D03*
%TD*%
D16*
%TO.N,-BATT*%
X95500000Y-88500000D02*
X95500000Y-84500000D01*
X95500000Y-89000000D02*
X95500000Y-88500000D01*
%TO.N,/IO18*%
X103715000Y-105215000D02*
X104000000Y-105500000D01*
X77715000Y-105215000D02*
X103715000Y-105215000D01*
X77500000Y-105000000D02*
X77715000Y-105215000D01*
%TO.N,/IO17*%
X111794695Y-99850000D02*
X112395305Y-99850000D01*
X112820000Y-100274695D02*
X112820000Y-102680000D01*
X79000000Y-97000000D02*
X82135000Y-100135000D01*
X111509695Y-100135000D02*
X111794695Y-99850000D01*
X112395305Y-99850000D02*
X112820000Y-100274695D01*
X82135000Y-100135000D02*
X111509695Y-100135000D01*
X112820000Y-102680000D02*
X112500000Y-103000000D01*
X112500000Y-103000000D02*
X112210000Y-103000000D01*
X112210000Y-103000000D02*
X112095000Y-103115000D01*
%TO.N,/IO16*%
X109762653Y-103762653D02*
X109737347Y-103762653D01*
X109737347Y-103762653D02*
X103489013Y-110010987D01*
X103489013Y-110010987D02*
X86924013Y-110010987D01*
X86924013Y-110010987D02*
X86000000Y-110935000D01*
X86000000Y-121000000D02*
X86000000Y-113000000D01*
X83500000Y-123500000D02*
X86000000Y-121000000D01*
X83500000Y-124360000D02*
X83500000Y-123500000D01*
%TO.N,/IO13*%
X124474695Y-99500000D02*
X125000000Y-99500000D01*
X107512652Y-115537958D02*
X108436737Y-115537958D01*
X108436737Y-115537958D02*
X124474695Y-99500000D01*
%TO.N,/IO19*%
X110725000Y-111300305D02*
X110725000Y-107225000D01*
X106000000Y-116500000D02*
X106000000Y-116025305D01*
X106000000Y-116025305D02*
X110725000Y-111300305D01*
X110725000Y-107225000D02*
X110500000Y-107000000D01*
%TO.N,/SD0*%
X130000000Y-111000000D02*
X126598345Y-107598345D01*
X132000000Y-111000000D02*
X130000000Y-111000000D01*
X125762653Y-106262653D02*
X124000000Y-104500000D01*
%TO.N,/SD1*%
X132000000Y-112500000D02*
X122000000Y-112500000D01*
X119500000Y-112000000D02*
X117582653Y-110082653D01*
%TO.N,/SD2*%
X137000000Y-88500000D02*
X131000000Y-88500000D01*
X131000000Y-88500000D02*
X127500000Y-92000000D01*
%TO.N,/SD3*%
X130500000Y-87500000D02*
X126500000Y-91500000D01*
X137000000Y-87500000D02*
X130500000Y-87500000D01*
%TO.N,/CLK*%
X120000000Y-93474695D02*
X120000000Y-94500000D01*
X126974695Y-86500000D02*
X120000000Y-93474695D01*
X137000000Y-86500000D02*
X126974695Y-86500000D01*
%TO.N,/CMD*%
X138500000Y-85000000D02*
X131500000Y-85000000D01*
%TO.N,GND*%
X135040000Y-81000000D02*
X132040000Y-78000000D01*
X132040000Y-78000000D02*
X128000000Y-78000000D01*
X128000000Y-78000000D02*
X120500000Y-70500000D01*
%TO.N,/IO14*%
X82089216Y-96825000D02*
X132175000Y-96825000D01*
X132175000Y-96825000D02*
X132500000Y-96500000D01*
X81707108Y-97207108D02*
X82089216Y-96825000D01*
%TO.N,/IO15*%
X81500000Y-96000000D02*
X116000000Y-96000000D01*
X81000000Y-96500000D02*
X81500000Y-96000000D01*
%TO.N,/IO21*%
X109775000Y-109275000D02*
X110000000Y-109500000D01*
X107725000Y-109275000D02*
X109775000Y-109275000D01*
X93500000Y-114449695D02*
X95839695Y-112110000D01*
X104890000Y-112110000D02*
X107725000Y-109275000D01*
X93500000Y-134500000D02*
X93500000Y-114449695D01*
X83500000Y-134520000D02*
X93480000Y-134520000D01*
X95839695Y-112110000D02*
X104890000Y-112110000D01*
X93480000Y-134520000D02*
X93500000Y-134500000D01*
%TO.N,/IO22*%
X94500000Y-114475000D02*
X94500000Y-137000000D01*
X95500000Y-113475000D02*
X94500000Y-114475000D01*
%TO.N,/IO12*%
X109000000Y-116000000D02*
X117171384Y-116000000D01*
X117171384Y-116000000D02*
X128225000Y-104946384D01*
X128225000Y-104946384D02*
X128225000Y-99500000D01*
%TO.N,/IO1*%
X108500000Y-111500000D02*
X109000000Y-112000000D01*
X108500000Y-110000000D02*
X108500000Y-111500000D01*
%TO.N,+3V3*%
X129567653Y-96067653D02*
X124000000Y-90500000D01*
%TO.N,/EN_ESP*%
X134500000Y-115500000D02*
X134500000Y-114000000D01*
X134500000Y-114000000D02*
X134000000Y-113500000D01*
%TO.N,/IO35*%
X139280000Y-115780000D02*
X132000000Y-108500000D01*
X154500000Y-115780000D02*
X139280000Y-115780000D01*
%TO.N,/IO33*%
X137200000Y-110700000D02*
X132000000Y-105500000D01*
X154500000Y-110700000D02*
X137200000Y-110700000D01*
%TO.N,/IO25*%
X139960000Y-100540000D02*
X136000000Y-104500000D01*
X154500000Y-100540000D02*
X139960000Y-100540000D01*
%TO.N,/IO27*%
X135120000Y-105620000D02*
X131500000Y-102000000D01*
X154500000Y-105620000D02*
X135120000Y-105620000D01*
%TO.N,/IO23*%
X154500000Y-98000000D02*
X128640000Y-98000000D01*
X128640000Y-98000000D02*
X112095000Y-114545000D01*
%TO.N,/IO5*%
X104340000Y-111660000D02*
X111500000Y-104500000D01*
X83500000Y-111660000D02*
X104340000Y-111660000D01*
X111500000Y-104500000D02*
X111980000Y-104500000D01*
X111980000Y-104500000D02*
X112095000Y-104385000D01*
%TO.N,/IO4*%
X103380000Y-109120000D02*
X112000000Y-100500000D01*
X83500000Y-109120000D02*
X103380000Y-109120000D01*
X112000000Y-100500000D02*
X112020000Y-100500000D01*
X112020000Y-100500000D02*
X112095000Y-100575000D01*
%TO.N,Net-(J5-Pin_1)*%
X101500000Y-81500000D02*
X101500000Y-81000000D01*
X104000000Y-84000000D02*
X101500000Y-81500000D01*
%TO.N,+BATT*%
X88000000Y-78813888D02*
X88000000Y-78000000D01*
X89461112Y-80275000D02*
X88000000Y-78813888D01*
X88000000Y-78000000D02*
X88065103Y-77934897D01*
X88065103Y-77934897D02*
X88584897Y-77934897D01*
X88584897Y-77934897D02*
X89150000Y-78500000D01*
%TO.N,Net-(Q1-S)*%
X101500000Y-89000000D02*
X103000000Y-87500000D01*
X103000000Y-87500000D02*
X103000000Y-86000000D01*
%TO.N,Net-(Q1-G)*%
X97499999Y-88000000D02*
X100000000Y-88000000D01*
X96887346Y-88612653D02*
X97499999Y-88000000D01*
%TO.N,Net-(BT1--)*%
X119775000Y-72115000D02*
X119775000Y-70199695D01*
X129974695Y-60000000D02*
X151477500Y-60000000D01*
X94500000Y-90000000D02*
X101890000Y-90000000D01*
X101890000Y-90000000D02*
X119775000Y-72115000D01*
X119775000Y-70199695D02*
X129974695Y-60000000D01*
X151477500Y-60000000D02*
X153742500Y-57735000D01*
%TO.N,Net-(J12-Pin_2)*%
X116000000Y-84500000D02*
X116000000Y-79500000D01*
%TO.N,+BATT*%
X89100000Y-77600000D02*
X87000000Y-75500000D01*
X85500000Y-75500000D02*
X87000000Y-75500000D01*
X87000000Y-75500000D02*
X87500000Y-75500000D01*
X106000000Y-78000000D02*
X105600000Y-77600000D01*
X105600000Y-77600000D02*
X89100000Y-77600000D01*
%TO.N,Net-(J11-Pin_1)*%
X111500000Y-76000000D02*
X111500000Y-74000000D01*
%TO.N,+BATT*%
X84500000Y-76000000D02*
X85000000Y-76000000D01*
X85000000Y-76000000D02*
X85500000Y-75500000D01*
%TO.N,Net-(U1-PROG)*%
X88000000Y-72000000D02*
X91500000Y-72000000D01*
%TD*%
M02*
